PathFileType	4	(x/y/z)	S05_M20_T08
DataRate	CameraRate	NumFrames	NumMarkers	Units	OrigDataRate	OrigDataStartFrame	OrigNumFrames
240	240	4	50	mm	240	65	518
Frame#	Time	Sternum			R.Acromium			L.Acromium			Top.Head			R.ASIS			L.ASIS			R.PSIS			L.PSIS			R.Great.Tro			L.Great.Tro			R.Iliac.Crest			L.Iliac.Crest			V.Sacral			R.Thigh.Upper.Post			R.Thigh.Lower.Ant			R.Thigh.Lower.Post			R.Thigh.Upper.Ant			R.Knee.Lat			R.Knee.Med			R.Shank.Upper.Post			R.Shank.Lower.Ant			R.Shank.Lower.Post			R.Shank.Upper.Ant			R.Ankle.Lat			R.Ankle.Med			R.Heel.Upper			R.Heel.Med			R.Heel.Lat			R.Toe.Lat			R.Toe.Med			R.Toe.Tip			L.Thigh.Upper.Post			L.Thigh.Lower.Ant			L.Thigh.Lower.Post			L.Thigh.Upper.Ant			L.Knee.Lat			L.Shank.Upper.Post			L.Shank.Lower.Ant			L.Shank.Lower.Post			L.Shank.Upper.Ant			L.Ankle.Lat			L.Ankle.Med			L.Heel.Upper			L.Heel.Med			L.Heel.Lat			L.Toe.Lat			L.Toe.Med			L.Toe.Tip			Cervical.Spine			Back			
		X1	Y1	Z1	X2	Y2	Z2	X3	Y3	Z3	X4	Y4	Z4	X5	Y5	Z5	X6	Y6	Z6	X7	Y7	Z7	X8	Y8	Z8	X9	Y9	Z9	X10	Y10	Z10	X11	Y11	Z11	X12	Y12	Z12	X13	Y13	Z13	X14	Y14	Z14	X15	Y15	Z15	X16	Y16	Z16	X17	Y17	Z17	X18	Y18	Z18	X19	Y19	Z19	X20	Y20	Z20	X21	Y21	Z21	X22	Y22	Z22	X23	Y23	Z23	X24	Y24	Z24	X25	Y25	Z25	X26	Y26	Z26	X27	Y27	Z27	X28	Y28	Z28	X29	Y29	Z29	X30	Y30	Z30	X31	Y31	Z31	X32	Y32	Z32	X33	Y33	Z33	X34	Y34	Z34	X35	Y35	Z35	X36	Y36	Z36	X37	Y37	Z37	X38	Y38	Z38	X39	Y39	Z39	X40	Y40	Z40	X41	Y41	Z41	X42	Y42	Z42	X43	Y43	Z43	X44	Y44	Z44	X45	Y45	Z45	X46	Y46	Z46	X47	Y47	Z47	X48	Y48	Z48	X49	Y49	Z49	X50	Y50	Z50	

65	0.26667	-509.24	1244.5	273.89	-597.47	1521.7	398.86	-592.33	1509.3	70.667	-608.14	1801.2	187.41	-607.56	990.44	413.66	-565.05	999.37	168.49	-791.94	1016.8	297.63	-775.69	1020.7	207.42	-700.07	909.3	464.09	-630.47	924.3	77.062	-696.73	1079.8	436.95	-648.49	1073	104.18	-800.54	984.49	262.21	-609.06	686.98	481.09	-541.55	621.67	441.7	-606.47	597.5	465.02	-548.9	709.73	454.15	-612.86	507.47	453.71	-591.98	486.58	323.13	-831.02	425.65	421.27	-853.95	339.14	413.04	-894.02	387.3	397.63	-790.16	377.43	436.1	-953.77	306.06	387.07	-913.15	305.66	303.47	-1017.2	341.34	324.52	-1036.3	323.48	290.63	-1043.9	316.49	354.2	-991.73	156.66	393.75	-950.75	146.47	278.19	-912.98	92.486	323.65	-576.49	687.75	93.214	-485.81	635.13	128.76	-547.48	599.01	114.88	-506.65	721.21	107.41	-515.4	518.27	125.34	-574.02	314.81	130.75	-504.98	259.38	138.13	-574.3	243.69	150.49	-508.52	328.93	123.24	-544.6	113.61	162.45	-509.21	129.67	248	-599.93	66.245	218.65	-586.57	42.659	252.06	-597.56	37.583	191.07	-415.96	37.144	132.65	-390.72	53.744	250.94	-329.19	64.082	194.07	-652.03	1551.8	235.34	-777.61	1279.2	250.43
66	0.27083	-504.35	1245.8	273.44	-592.45	1523	398.46	-587.38	1510.5	70.253	-602.83	1802.5	187.4	-602.32	991.92	413.17	-560.4	1000.5	167.91	-786.98	1017.9	297.76	-770.95	1021.9	207.51	-694.21	910.67	464.09	-626.31	925.19	76.823	-691.47	1081.2	436.69	-644.02	1074.1	103.85	-795.65	985.64	262.39	-600.31	689.35	480.95	-532.15	624.94	441.09	-596.57	599.91	464.9	-540.64	712.93	453.67	-601.82	509.78	453.37	-580.86	489.35	322.69	-819.55	426.72	420.96	-841.83	340.07	412.54	-882.3	387.95	397.37	-778.28	378.78	435.55	-941.44	306.46	386.55	-900.75	306.69	302.87	-1005.8	341.03	324.1	-1024.6	322.86	290.22	-1031.9	315.84	353.86	-977.33	156.91	393.43	-936.46	147.23	277.76	-897.72	94.01	323.18	-573.89	688.28	92.947	-483.48	635.01	128.17	-545.45	599.34	114.55	-503.77	721.25	106.87	-513.86	518.3	124.99	-573.23	315	130.47	-504.37	259.37	137.85	-573.73	243.92	150.26	-507.68	328.91	122.91	-544.42	113.7	162.34	-509.01	129.77	247.85	-599.76	66.3	218.68	-586.54	42.729	252.03	-597.52	37.659	191.04	-415.93	37.004	132.58	-390.68	53.75	250.88	-329.13	63.929	193.98	-646.97	1553	234.94	-772.63	1280.4	250.13
67	0.275	-499.47	1247	273	-587.45	1524.2	398.08	-582.47	1511.7	69.852	-597.56	1803.8	187.43	-597.08	993.4	412.68	-555.76	1001.5	167.33	-782.04	1019.1	297.91	-766.22	1023	207.61	-688.36	912.06	464.1	-622.18	926.07	76.593	-686.23	1082.7	436.44	-639.55	1075.1	103.53	-790.78	986.78	262.58	-591.6	691.78	480.82	-522.84	628.26	440.46	-586.73	602.39	464.78	-532.44	716.18	453.19	-590.86	512.15	453.02	-569.83	492.18	322.24	-808.13	427.71	420.6	-829.69	340.91	412.02	-870.59	388.46	397.05	-766.42	380.09	434.97	-929.05	306.71	386	-888.26	307.54	302.27	-994.24	340.48	323.58	-1012.8	321.96	289.72	-1020	314.95	353.45	-962.78	157.03	393.16	-921.99	147.78	277.41	-882.28	95.407	322.87	-571.37	688.81	92.683	-481.22	634.88	127.54	-543.5	599.66	114.21	-500.97	721.28	106.31	-512.39	518.33	124.62	-572.49	315.18	130.18	-503.8	259.36	137.56	-573.18	244.14	150.03	-506.88	328.89	122.57	-544.24	113.8	162.22	-508.81	129.88	247.7	-599.6	66.358	218.71	-586.52	42.799	252	-597.49	37.739	191.02	-415.91	36.862	132.51	-390.63	53.762	250.81	-329.08	63.783	193.88	-641.93	1554.3	234.55	-767.66	1281.7	249.84
68	0.27917	-494.6	1248.2	272.56	-582.46	1525.5	397.71	-577.59	1512.9	69.464	-592.31	1805.1	187.49	-591.85	994.85	412.19	-551.14	1002.6	166.75	-777.11	1020.3	298.06	-761.51	1024.2	207.72	-682.54	913.46	464.11	-618.11	926.95	76.371	-680.99	1084.1	436.2	-635.08	1076.2	103.22	-785.91	987.91	262.78	-582.94	694.26	480.68	-513.59	631.62	439.81	-576.95	604.93	464.64	-524.31	719.46	452.69	-579.98	514.58	452.65	-558.91	495.07	321.77	-796.75	428.62	420.19	-817.55	341.66	411.46	-858.89	388.85	396.67	-754.57	381.36	434.37	-916.62	306.8	385.41	-875.7	308.2	301.66	-982.67	339.68	322.97	-1000.9	320.78	289.15	-1007.9	313.84	352.97	-948.11	157.03	392.95	-907.36	148.14	277.16	-866.65	96.678	322.71	-568.93	689.33	92.422	-479.04	634.74	126.88	-541.63	599.98	113.88	-498.23	721.3	105.72	-510.99	518.36	124.25	-571.78	315.37	129.89	-503.26	259.36	137.27	-572.67	244.36	149.8	-506.13	328.87	122.22	-544.06	113.89	162.1	-508.61	129.99	247.55	-599.47	66.418	218.73	-586.5	42.87	251.97	-597.45	37.823	191	-415.89	36.719	132.44	-390.59	53.78	250.74	-329.02	63.642	193.78	-636.92	1555.5	234.17	-762.7	1282.9	249.56
